<svg width="149" height="63" viewBox="0 0 149 63" fill="none" xmlns="http://www.w3.org/2000/svg">
<g clip-path="url(#clip0_300_499)">
<path d="M18.3164 29.0801C19.7297 29.0801 21.0364 29.4401 22.2364 30.1601C23.4631 30.8801 24.4364 31.8401 25.1564 33.0401C25.8764 34.2135 26.2364 35.4935 26.2364 36.8801V41.8001C26.2364 43.1868 25.8764 44.4801 25.1564 45.6801C24.4364 46.8535 23.4631 47.8001 22.2364 48.5201C21.0364 49.2401 19.7297 49.6001 18.3164 49.6001C17.0631 49.6001 15.9297 49.3335 14.9164 48.8001C13.9297 48.2401 13.2097 47.5735 12.7564 46.8001H12.4364V56.4001C12.4364 56.8001 12.2897 57.1335 11.9964 57.4001C11.7297 57.6668 11.3697 57.8001 10.9164 57.8001C10.4897 57.8001 10.1297 57.6668 9.83641 57.4001C9.56974 57.1335 9.43641 56.8001 9.43641 56.4001V30.8801C9.43641 30.4801 9.56974 30.1468 9.83641 29.8801C10.1297 29.6135 10.4897 29.4801 10.9164 29.4801C11.3964 29.4801 11.7697 29.6401 12.0364 29.9601C12.3297 30.2801 12.4764 30.6668 12.4764 31.1201V31.8801H12.7164C13.1697 31.1335 13.8764 30.4801 14.8364 29.9201C15.8231 29.3601 16.9831 29.0801 18.3164 29.0801ZM23.2364 36.8801C23.2364 35.9201 22.9964 35.0535 22.5164 34.2801C22.0364 33.4801 21.3697 32.8535 20.5164 32.4001C19.6897 31.9201 18.7564 31.6801 17.7164 31.6801C16.1964 31.6801 14.9297 32.1601 13.9164 33.1201C12.9297 34.0801 12.4364 35.2668 12.4364 36.6801V42.0001C12.4364 43.4135 12.9297 44.6001 13.9164 45.5601C14.9297 46.5201 16.1964 47.0001 17.7164 47.0001C18.7564 47.0001 19.6897 46.7735 20.5164 46.3201C21.3697 45.8401 22.0364 45.2135 22.5164 44.4401C22.9964 43.6401 23.2364 42.7601 23.2364 41.8001V36.8801ZM38.3505 29.0801C39.9238 29.0801 41.3238 29.4135 42.5505 30.0801C43.7771 30.7201 44.7238 31.6001 45.3905 32.7201C46.0838 33.8401 46.4305 35.0668 46.4305 36.4001V47.8001C46.4305 48.2001 46.2838 48.5335 45.9905 48.8001C45.7238 49.0668 45.3771 49.2001 44.9505 49.2001C44.4971 49.2001 44.1238 49.0535 43.8305 48.7601C43.5638 48.4668 43.4305 48.1068 43.4305 47.6801V46.8001H43.1505C42.3505 47.6268 41.3505 48.3068 40.1505 48.8401C38.9505 49.3468 37.7505 49.6001 36.5505 49.6001C35.3238 49.6001 34.2171 49.3468 33.2305 48.8401C32.2705 48.3068 31.5105 47.6135 30.9505 46.7601C30.4171 45.8801 30.1505 44.9201 30.1505 43.8801C30.1505 42.7868 30.4305 41.7868 30.9905 40.8801C31.5771 39.9468 32.4038 39.2135 33.4705 38.6801C34.5638 38.1468 35.8171 37.8801 37.2305 37.8801H43.4305V36.4001C43.4305 35.0135 42.9638 33.8801 42.0305 33.0001C41.0971 32.1201 39.8705 31.6801 38.3505 31.6801C37.4171 31.6801 36.6038 31.8801 35.9105 32.2801C35.2171 32.6535 34.5771 33.2668 33.9905 34.1201C33.7238 34.4401 33.4571 34.6668 33.1905 34.8001C32.9505 34.9335 32.6838 35.0001 32.3905 35.0001C32.0438 35.0001 31.7505 34.8935 31.5105 34.6801C31.2705 34.4401 31.1505 34.1468 31.1505 33.8001C31.1505 33.4001 31.3105 32.9601 31.6305 32.4801C31.9771 31.9735 32.4305 31.4935 32.9905 31.0401C33.6838 30.4268 34.4838 29.9468 35.3905 29.6001C36.3238 29.2535 37.3105 29.0801 38.3505 29.0801ZM37.0305 47.0801C38.1505 47.0801 39.2971 46.8135 40.4705 46.2801C41.6438 45.7468 42.6305 45.0535 43.4305 44.2001V40.2801H37.2305C35.9505 40.2801 34.9505 40.6135 34.2305 41.2801C33.5105 41.9201 33.1505 42.7601 33.1505 43.8001C33.1505 44.7601 33.4971 45.5468 34.1905 46.1601C34.8838 46.7735 35.8305 47.0801 37.0305 47.0801ZM66.9661 21.2801C67.3928 21.2801 67.7394 21.4135 68.0061 21.6801C68.2994 21.9468 68.4461 22.2801 68.4461 22.6801V47.8001C68.4461 48.2001 68.2994 48.5335 68.0061 48.8001C67.7394 49.0668 67.3928 49.2001 66.9661 49.2001C66.5128 49.2001 66.1394 49.0401 65.8461 48.7201C65.5528 48.4001 65.4061 48.0268 65.4061 47.6001V46.8001H65.1661C64.7128 47.5468 63.9661 48.2001 62.9261 48.7601C61.9128 49.3201 60.7928 49.6001 59.5661 49.6001C58.1528 49.6001 56.8328 49.2401 55.6061 48.5201C54.4061 47.8001 53.4461 46.8535 52.7261 45.6801C52.0061 44.4801 51.6461 43.1868 51.6461 41.8001V36.8801C51.6461 35.4935 52.0061 34.2135 52.7261 33.0401C53.4461 31.8401 54.4061 30.8801 55.6061 30.1601C56.8328 29.4401 58.1528 29.0801 59.5661 29.0801C60.7661 29.0801 61.8594 29.3468 62.8461 29.8801C63.8594 30.3868 64.6328 31.0535 65.1661 31.8801H65.4461V22.6801C65.4461 22.2801 65.5794 21.9468 65.8461 21.6801C66.1394 21.4135 66.5128 21.2801 66.9661 21.2801ZM60.1661 47.0001C61.6861 47.0001 62.9394 46.5201 63.9261 45.5601C64.9394 44.6001 65.4461 43.4135 65.4461 42.0001V36.6801C65.4461 35.2668 64.9394 34.0801 63.9261 33.1201C62.9394 32.1601 61.6861 31.6801 60.1661 31.6801C59.1261 31.6801 58.1794 31.9201 57.3261 32.4001C56.4994 32.8535 55.8461 33.4801 55.3661 34.2801C54.8861 35.0535 54.6461 35.9201 54.6461 36.8801V41.8001C54.6461 42.7601 54.8861 43.6401 55.3661 44.4401C55.8461 45.2135 56.4994 45.8401 57.3261 46.3201C58.1794 46.7735 59.1261 47.0001 60.1661 47.0001ZM83.5508 29.0801C84.9641 29.0801 86.2708 29.4401 87.4708 30.1601C88.6974 30.8801 89.6708 31.8401 90.3908 33.0401C91.1108 34.2135 91.4708 35.4935 91.4708 36.8801V41.8001C91.4708 43.1868 91.1108 44.4801 90.3908 45.6801C89.6708 46.8535 88.6974 47.8001 87.4708 48.5201C86.2708 49.2401 84.9641 49.6001 83.5508 49.6001C82.2974 49.6001 81.1641 49.3335 80.1508 48.8001C79.1641 48.2401 78.4441 47.5735 77.9908 46.8001H77.6708V56.4001C77.6708 56.8001 77.5241 57.1335 77.2308 57.4001C76.9641 57.6668 76.6041 57.8001 76.1508 57.8001C75.7241 57.8001 75.3641 57.6668 75.0708 57.4001C74.8041 57.1335 74.6708 56.8001 74.6708 56.4001V30.8801C74.6708 30.4801 74.8041 30.1468 75.0708 29.8801C75.3641 29.6135 75.7241 29.4801 76.1508 29.4801C76.6308 29.4801 77.0041 29.6401 77.2708 29.9601C77.5641 30.2801 77.7108 30.6668 77.7108 31.1201V31.8801H77.9508C78.4041 31.1335 79.1108 30.4801 80.0708 29.9201C81.0574 29.3601 82.2174 29.0801 83.5508 29.0801ZM88.4708 36.8801C88.4708 35.9201 88.2308 35.0535 87.7508 34.2801C87.2708 33.4801 86.6041 32.8535 85.7508 32.4001C84.9241 31.9201 83.9908 31.6801 82.9508 31.6801C81.4308 31.6801 80.1641 32.1601 79.1508 33.1201C78.1641 34.0801 77.6708 35.2668 77.6708 36.6801V42.0001C77.6708 43.4135 78.1641 44.6001 79.1508 45.5601C80.1641 46.5201 81.4308 47.0001 82.9508 47.0001C83.9908 47.0001 84.9241 46.7735 85.7508 46.3201C86.6041 45.8401 87.2708 45.2135 87.7508 44.4401C88.2308 43.6401 88.4708 42.7601 88.4708 41.8001V36.8801ZM103.585 29.0801C105.158 29.0801 106.558 29.4135 107.785 30.0801C109.012 30.7201 109.958 31.6001 110.625 32.7201C111.318 33.8401 111.665 35.0668 111.665 36.4001V47.8001C111.665 48.2001 111.518 48.5335 111.225 48.8001C110.958 49.0668 110.612 49.2001 110.185 49.2001C109.732 49.2001 109.358 49.0535 109.065 48.7601C108.798 48.4668 108.665 48.1068 108.665 47.6801V46.8001H108.385C107.585 47.6268 106.585 48.3068 105.385 48.8401C104.185 49.3468 102.985 49.6001 101.785 49.6001C100.558 49.6001 99.4515 49.3468 98.4648 48.8401C97.5048 48.3068 96.7448 47.6135 96.1848 46.7601C95.6515 45.8801 95.3848 44.9201 95.3848 43.8801C95.3848 42.7868 95.6648 41.7868 96.2248 40.8801C96.8115 39.9468 97.6382 39.2135 98.7048 38.6801C99.7982 38.1468 101.052 37.8801 102.465 37.8801H108.665V36.4001C108.665 35.0135 108.198 33.8801 107.265 33.0001C106.332 32.1201 105.105 31.6801 103.585 31.6801C102.652 31.6801 101.838 31.8801 101.145 32.2801C100.452 32.6535 99.8115 33.2668 99.2248 34.1201C98.9582 34.4401 98.6915 34.6668 98.4248 34.8001C98.1848 34.9335 97.9182 35.0001 97.6248 35.0001C97.2782 35.0001 96.9848 34.8935 96.7448 34.6801C96.5048 34.4401 96.3848 34.1468 96.3848 33.8001C96.3848 33.4001 96.5448 32.9601 96.8648 32.4801C97.2115 31.9735 97.6648 31.4935 98.2248 31.0401C98.9182 30.4268 99.7182 29.9468 100.625 29.6001C101.558 29.2535 102.545 29.0801 103.585 29.0801ZM102.265 47.0801C103.385 47.0801 104.532 46.8135 105.705 46.2801C106.878 45.7468 107.865 45.0535 108.665 44.2001V40.2801H102.465C101.185 40.2801 100.185 40.6135 99.4648 41.2801C98.7448 41.9201 98.3848 42.7601 98.3848 43.8001C98.3848 44.7601 98.7315 45.5468 99.4248 46.1601C100.118 46.7735 101.065 47.0801 102.265 47.0801ZM119.08 49.2001C118.654 49.2001 118.294 49.0668 118 48.8001C117.734 48.5335 117.6 48.2001 117.6 47.8001V22.6801C117.6 22.2801 117.734 21.9468 118 21.6801C118.294 21.4135 118.654 21.2801 119.08 21.2801C119.534 21.2801 119.894 21.4135 120.16 21.6801C120.454 21.9468 120.6 22.2801 120.6 22.6801V47.8001C120.6 48.2001 120.454 48.5335 120.16 48.8001C119.894 49.0668 119.534 49.2001 119.08 49.2001ZM133.219 49.6001C131.699 49.6001 130.339 49.3068 129.139 48.7201C127.939 48.1068 126.979 47.3201 126.259 46.3601C125.913 45.9868 125.633 45.5868 125.419 45.1601C125.206 44.7068 125.099 44.3201 125.099 44.0001C125.099 43.6535 125.219 43.3735 125.459 43.1601C125.699 42.9201 126.006 42.8001 126.379 42.8001C126.699 42.8001 126.966 42.8801 127.179 43.0401C127.419 43.1735 127.673 43.4268 127.939 43.8001C129.006 45.9335 130.766 47.0001 133.219 47.0001C134.766 47.0001 135.966 46.6801 136.819 46.0401C137.673 45.4001 138.099 44.6135 138.099 43.6801C138.099 42.9868 137.859 42.4268 137.379 42.0001C136.926 41.5735 136.353 41.2401 135.659 41.0001C134.966 40.7601 134.019 40.5068 132.819 40.2401C131.299 39.8935 130.059 39.5468 129.099 39.2001C128.166 38.8535 127.366 38.3068 126.699 37.5601C126.033 36.8135 125.699 35.8268 125.699 34.6001C125.699 33.6668 125.993 32.7868 126.579 31.9601C127.193 31.1068 128.059 30.4135 129.179 29.8801C130.299 29.3468 131.579 29.0801 133.019 29.0801C134.326 29.0801 135.539 29.3335 136.659 29.8401C137.779 30.3201 138.659 30.9601 139.299 31.7601C140.046 32.5868 140.419 33.2935 140.419 33.8801C140.419 34.2268 140.299 34.5201 140.059 34.7601C139.819 34.9735 139.513 35.0801 139.139 35.0801C138.659 35.0801 138.166 34.7735 137.659 34.1601C136.619 32.5068 135.073 31.6801 133.019 31.6801C131.686 31.6801 130.633 31.9735 129.859 32.5601C129.086 33.1468 128.699 33.8268 128.699 34.6001C128.699 35.2935 128.926 35.8535 129.379 36.2801C129.859 36.7068 130.446 37.0401 131.139 37.2801C131.833 37.5201 132.779 37.7735 133.979 38.0401C135.499 38.3868 136.726 38.7335 137.659 39.0801C138.619 39.4268 139.433 39.9735 140.099 40.7201C140.766 41.4668 141.099 42.4535 141.099 43.6801C141.099 44.6935 140.779 45.6535 140.139 46.5601C139.526 47.4668 138.619 48.2001 137.419 48.7601C136.219 49.3201 134.819 49.6001 133.219 49.6001Z" fill="white"/>
<rect x="77" y="3.67053" width="3.8" height="68.3001" rx="1.9" transform="rotate(-75 77 3.67053)" fill="white"/>
<path d="M70.0015 0.510427C71.0535 0.228532 72.1349 0.852863 72.4168 1.90491C72.6987 2.95695 72.0744 4.03832 71.0223 4.32022L8.85936 20.9767C7.80732 21.2586 6.72596 20.6343 6.44406 19.5822C6.16217 18.5302 6.7865 17.4488 7.83854 17.1669L70.0015 0.510427Z" fill="white"/>
</g>
<defs>
<clipPath id="clip0_300_499">
<rect width="149" height="63.0001" fill="white"/>
</clipPath>
</defs>
</svg>
