<svg width="24" height="25" viewBox="0 0 24 25" fill="none" xmlns="http://www.w3.org/2000/svg">
<path d="M20 8.87501L14 3.61501C13.45 3.12305 12.7379 2.85107 12 2.85107C11.2621 2.85107 10.55 3.12305 10 3.61501L4 8.87501C3.68237 9.15908 3.4289 9.50756 3.25648 9.89725C3.08405 10.2869 2.99662 10.7089 3 11.135V19.875C3 20.6707 3.31607 21.4337 3.87868 21.9963C4.44129 22.5589 5.20435 22.875 6 22.875H18C18.7957 22.875 19.5587 22.5589 20.1213 21.9963C20.6839 21.4337 21 20.6707 21 19.875V11.125C21.002 10.7006 20.9139 10.2805 20.7415 9.89269C20.5691 9.50483 20.3164 9.15796 20 8.87501ZM14 20.875H10V15.875C10 15.6098 10.1054 15.3554 10.2929 15.1679C10.4804 14.9804 10.7348 14.875 11 14.875H13C13.2652 14.875 13.5196 14.9804 13.7071 15.1679C13.8946 15.3554 14 15.6098 14 15.875V20.875ZM19 19.875C19 20.1402 18.8946 20.3946 18.7071 20.5821C18.5196 20.7696 18.2652 20.875 18 20.875H16V15.875C16 15.0794 15.6839 14.3163 15.1213 13.7537C14.5587 13.1911 13.7957 12.875 13 12.875H11C10.2044 12.875 9.44129 13.1911 8.87868 13.7537C8.31607 14.3163 8 15.0794 8 15.875V20.875H6C5.73479 20.875 5.48043 20.7696 5.2929 20.5821C5.10536 20.3946 5 20.1402 5 19.875V11.125C5.00018 10.983 5.0306 10.8427 5.08922 10.7134C5.14784 10.5841 5.23333 10.4687 5.34 10.375L11.34 5.12501C11.5225 4.96469 11.7571 4.87627 12 4.87627C12.2429 4.87627 12.4775 4.96469 12.66 5.12501L18.66 10.375C18.7667 10.4687 18.8522 10.5841 18.9108 10.7134C18.9694 10.8427 18.9998 10.983 19 11.125V19.875Z" fill="#CDCDCD"/>
</svg>
