<?xml version="1.0" encoding="UTF-8"?>
<svg version="1.1" xmlns="http://www.w3.org/2000/svg" width="100" height="100">
<path d="M0 0 C0.97453125 0.84175781 1.9490625 1.68351562 2.953125 2.55078125 C31.68016476 27.76427596 51.06678014 65.44481752 53.87109375 103.70751953 C56.24235467 145.87823932 45.33467211 186.91584867 17 219 C16.15824219 219.97453125 15.31648438 220.9490625 14.44921875 221.953125 C-10.76427596 250.68016476 -48.44481752 270.06678014 -86.70751953 272.87109375 C-128.87823932 275.24235467 -169.91584867 264.33467211 -202 236 C-202.97453125 235.15824219 -203.9490625 234.31648438 -204.953125 233.44921875 C-233.68016476 208.23572404 -253.06678014 170.55518248 -255.87109375 132.29248047 C-258.24235467 90.12176068 -247.33467211 49.08415133 -219 17 C-217.73736328 15.53820312 -217.73736328 15.53820312 -216.44921875 14.046875 C-191.23572404 -14.68016476 -153.55518248 -34.06678014 -115.29248047 -36.87109375 C-73.12176068 -39.24235467 -32.08415133 -28.33467211 0 0 Z " fill="#58DCED" transform="translate(357,138)"/>
<path d="M0 0 C0.97453125 0.84175781 1.9490625 1.68351562 2.953125 2.55078125 C31.68016476 27.76427596 51.06678014 65.44481752 53.87109375 103.70751953 C56.24235467 145.87823932 45.33467211 186.91584867 17 219 C16.15824219 219.97453125 15.31648438 220.9490625 14.44921875 221.953125 C-10.76427596 250.68016476 -48.44481752 270.06678014 -86.70751953 272.87109375 C-128.87823932 275.24235467 -169.91584867 264.33467211 -202 236 C-202.97453125 235.15824219 -203.9490625 234.31648438 -204.953125 233.44921875 C-233.68016476 208.23572404 -253.06678014 170.55518248 -255.87109375 132.29248047 C-258.24235467 90.12176068 -247.33467211 49.08415133 -219 17 C-217.73736328 15.53820312 -217.73736328 15.53820312 -216.44921875 14.046875 C-191.23572404 -14.68016476 -153.55518248 -34.06678014 -115.29248047 -36.87109375 C-73.12176068 -39.24235467 -32.08415133 -28.33467211 0 0 Z M-204 15 C-204.70511719 15.64195312 -205.41023438 16.28390625 -206.13671875 16.9453125 C-223.76307204 33.46331497 -236.3156379 57.75022714 -242 81 C-242.37531058 82.31408567 -242.75165323 83.62787691 -243.12890625 84.94140625 C-245.94555385 95.48782419 -246.37682718 105.89581035 -246.375 116.75 C-246.37681274 117.44284088 -246.37862549 118.13568176 -246.38049316 118.84951782 C-246.37642877 132.57964951 -245.12282847 145.97149755 -241 159.125 C-240.69731201 160.0958252 -240.39462402 161.06665039 -240.08276367 162.06689453 C-232.68982052 184.84595046 -220.67043082 203.92947885 -204 221 C-203.41089844 221.639375 -202.82179687 222.27875 -202.21484375 222.9375 C-185.98965832 240.15931844 -161.7852661 253.28454691 -139 259 C-138.35981934 259.18046875 -137.71963867 259.3609375 -137.06005859 259.546875 C-125.18918192 262.84697314 -113.49267801 263.3992548 -101.25 263.4375 C-100.1481839 263.44662415 -100.1481839 263.44662415 -99.02410889 263.45593262 C-60.65710747 263.6636865 -25.22806419 247.58990644 2 221 C2.639375 220.41089844 3.27875 219.82179688 3.9375 219.21484375 C26.96174362 197.52302164 42.52321315 162.76920088 44.19287109 131.37329102 C44.58845347 112.37454848 44.45483658 94.40141933 39 76 C38.78069824 75.2584668 38.56139648 74.51693359 38.33544922 73.75292969 C31.37388854 51.27777874 18.17681759 31.79143832 2 15 C1.35804688 14.29488281 0.71609375 13.58976562 0.0546875 12.86328125 C-16.06075811 -4.33350378 -38.84047637 -15.42482275 -61.0625 -22.3125 C-62.21129639 -22.67625732 -62.21129639 -22.67625732 -63.38330078 -23.04736328 C-75.92614234 -26.75183433 -88.93204826 -27.44171167 -101.9375 -27.4375 C-102.64800507 -27.4385675 -103.35851013 -27.43963501 -104.09054565 -27.44073486 C-142.51601559 -27.35814442 -176.59273374 -11.40407204 -204 15 Z " fill="#4D4F4F" transform="translate(357,138)"/>
<path d="M0 0 C3.49406769 1.66762322 4.82670681 2.74006022 7 6 C7.25828552 8.77026367 7.25828552 8.77026367 7.27124023 12.16796875 C7.28652016 14.07509644 7.28652016 14.07509644 7.30210876 16.02075195 C7.30304976 16.69965485 7.30399075 17.37855774 7.30496025 18.07803345 C7.30862355 20.2047985 7.3253473 22.33109709 7.34571838 24.45776367 C7.40114219 30.50332986 7.43184681 36.54896416 7.45629883 42.59472656 C7.47216301 46.29416443 7.50236687 49.99326968 7.54106331 53.6925354 C7.55272104 55.1023099 7.55864373 56.51214385 7.55874443 57.92196655 C7.55893621 59.89203464 7.57869788 61.86207156 7.59936523 63.83203125 C7.60443588 64.95327393 7.60950653 66.0745166 7.61473083 67.22973633 C7.80666482 69.9632433 7.80666482 69.9632433 9.14152527 71.86343384 C11.84854116 73.51893263 13.97579811 73.36430064 17.13623047 73.35302734 C18.40119354 73.35668304 19.66615662 73.36033875 20.9694519 73.36410522 C21.64511074 73.35930523 22.32076958 73.35450523 23.01690292 73.34955978 C25.13593969 73.33581587 27.25404044 73.34226121 29.37307739 73.35440063 C35.39672983 73.38535485 41.42016513 73.38050575 47.44384766 73.36035156 C51.13042542 73.34941918 54.81630065 73.3626559 58.50278091 73.39024734 C59.90535166 73.3956802 61.30799301 73.39164339 62.71050644 73.37784958 C64.67524134 73.3587541 66.64021307 73.37279019 68.60498047 73.38818359 C69.72178192 73.38579681 70.83858337 73.38341003 71.98922729 73.38095093 C75.95212293 74.19576729 77.44422829 75.94325073 80 79 C81.41000664 81.82001327 81.24548451 83.87007255 81 87 C79.14207395 91.20478002 77.07836841 92.97865259 73 95 C69.96903992 95.39872742 69.96903992 95.39872742 66.55737305 95.43237305 C64.63594734 95.46206429 64.63594734 95.46206429 62.67570496 95.49235535 C61.28771105 95.4991241 59.89971554 95.50557108 58.51171875 95.51171875 C57.08395346 95.52857383 55.65620294 95.5467252 54.22846985 95.56611633 C50.48192967 95.61353297 46.73544936 95.64339587 42.9887085 95.66955566 C39.16097187 95.69940354 35.33344135 95.74591926 31.50585938 95.79101562 C24.00400871 95.87695372 16.50214291 95.9443408 9 96 C7.62621661 98.74756678 7.87529832 100.94754045 7.87402344 104.02270508 C7.87021667 105.28774368 7.86640991 106.55278229 7.86248779 107.8561554 C7.862197 108.87338904 7.862197 108.87338904 7.86190033 109.91117287 C7.85848572 112.7619813 7.83712314 115.61256146 7.81666946 118.46329021 C7.77864854 123.77186228 7.74738341 129.08019227 7.74951172 134.38891602 C7.75029954 138.08090843 7.72690547 141.77206761 7.6876297 145.46384239 C7.67717713 146.86917053 7.67564034 148.27459494 7.68328094 149.67994118 C7.69291997 151.64968549 7.66892305 153.6195068 7.64355469 155.58911133 C7.63990906 156.70892899 7.63626343 157.82874664 7.63250732 158.98249817 C6.80234186 162.94296742 5.05778366 164.4425747 2 167 C-0.82001327 168.41000664 -2.87007255 168.24548451 -6 168 C-9.49406769 166.33237678 -10.82670681 165.25993978 -13 162 C-13.27174377 159.2230072 -13.27174377 159.2230072 -13.30297852 155.81616211 C-13.31962051 154.54151596 -13.33626251 153.26686981 -13.35340881 151.95359802 C-13.36196976 150.56151364 -13.37046739 149.16942887 -13.37890625 147.77734375 C-13.3950808 146.3515153 -13.41226076 144.92569794 -13.43040466 143.49989319 C-13.4760901 139.74751908 -13.51089704 135.9951302 -13.54260254 132.24261475 C-13.59448123 126.23248412 -13.659567 120.2225163 -13.73081779 114.21258736 C-13.75367732 112.1108914 -13.76993044 110.0092162 -13.78553772 107.90745544 C-13.79902756 106.63596146 -13.8125174 105.36446747 -13.82641602 104.05444336 C-13.83592789 102.93098007 -13.84543976 101.80751678 -13.85523987 100.65000916 C-13.8225132 98.02350581 -13.8225132 98.02350581 -15 96 C-15.79069382 95.99413376 -16.58138763 95.98826752 -17.39604187 95.98222351 C-24.8557815 95.92426578 -32.31518829 95.85217183 -39.77463055 95.76428509 C-43.60941647 95.71960016 -47.44409663 95.68034016 -51.27905273 95.65356445 C-54.98157695 95.62751233 -58.68369372 95.58709712 -62.38596535 95.53681374 C-63.79686214 95.52015779 -65.20782939 95.50863556 -66.61881065 95.50238609 C-68.59844548 95.49273211 -70.577951 95.46296049 -72.55737305 95.43237305 C-74.24614815 95.41571846 -74.24614815 95.41571846 -75.96903992 95.39872742 C-80.42734397 94.81223073 -83.05581294 93.20465245 -85.8125 89.6875 C-87.2345205 86.46924308 -87.43597191 84.48777532 -87 81 C-85.33237678 77.50593231 -84.25993978 76.17329319 -81 74 C-78.22973633 73.74171448 -78.22973633 73.74171448 -74.83203125 73.72875977 C-73.56061279 73.71857315 -72.28919434 73.70838654 -70.97924805 73.69789124 C-70.30034515 73.69695024 -69.62144226 73.69600925 -68.92196655 73.69503975 C-66.7952015 73.69137645 -64.66890291 73.6746527 -62.54223633 73.65428162 C-56.49667014 73.59885781 -50.45103584 73.56815319 -44.40527344 73.54370117 C-40.70583557 73.52783699 -37.00673032 73.49763313 -33.3074646 73.45893669 C-31.8976901 73.44727896 -30.48785615 73.44135627 -29.07803345 73.44125557 C-27.10796536 73.44106379 -25.13792844 73.42130212 -23.16796875 73.40063477 C-21.48610474 73.39302879 -21.48610474 73.39302879 -19.77026367 73.38526917 C-17.0367567 73.19333518 -17.0367567 73.19333518 -15.13656616 71.85847473 C-13.48106737 69.15145884 -13.63569936 67.02420189 -13.64697266 63.86376953 C-13.64148911 61.96632492 -13.64148911 61.96632492 -13.63589478 60.0305481 C-13.64309477 59.01705984 -13.64309477 59.01705984 -13.65044022 57.98309708 C-13.66418413 55.86406031 -13.65773879 53.74595956 -13.64559937 51.62692261 C-13.61464515 45.60327017 -13.61949425 39.57983487 -13.63964844 33.55615234 C-13.65058082 29.86957458 -13.6373441 26.18369935 -13.60975266 22.49721909 C-13.6043198 21.09464834 -13.60835661 19.69200699 -13.62215042 18.28949356 C-13.6412459 16.32475866 -13.62720981 14.35978693 -13.61181641 12.39501953 C-13.61539658 10.71981735 -13.61539658 10.71981735 -13.61904907 9.01077271 C-12.80423271 5.04787707 -11.05674927 3.55577171 -8 1 C-5.17998673 -0.41000664 -3.12992745 -0.24548451 0 0 Z " fill="#FCFCFC" transform="translate(259,172)"/>
<path d="M0 0 C5.17214046 3.21613098 8.19861019 7.64022935 10.1484375 13.3359375 C10.38894653 16.10115051 10.38894653 16.10115051 10.37548828 19.13598633 C10.37533722 20.27679153 10.37518616 21.41759674 10.37503052 22.5929718 C10.36470795 23.81397079 10.35438538 25.03496979 10.34375 26.29296875 C10.3409201 27.55106857 10.33809021 28.8091684 10.33517456 30.10539246 C10.32588871 33.43781132 10.30794226 36.76995297 10.2857666 40.10229492 C10.26524767 43.50762547 10.25615996 46.91298473 10.24609375 50.31835938 C10.2240539 56.99096168 10.1905914 63.66343359 10.1484375 70.3359375 C11.17081764 70.32261383 11.17081764 70.32261383 12.21385193 70.309021 C19.33576027 70.22022737 26.45751021 70.16007031 33.57983398 70.11621094 C36.23477436 70.09841697 38.88884282 70.0688987 41.54370117 70.03417969 C45.36908834 69.98542124 49.193889 69.96291253 53.01953125 69.9453125 C54.19801132 69.92466736 55.37649139 69.90402222 56.59068298 69.88275146 C64.32193704 69.88066683 71.15215682 70.62401538 77.02244568 76.07659912 C80.8484017 80.22886198 82.87089602 83.93057797 83.5234375 89.5859375 C82.77528527 97.06745985 79.88202722 102.3561034 74.125 107.14453125 C69.6910926 109.81714342 65.34867855 110.58571635 60.23486328 110.56298828 C59.09413361 110.56283722 57.95340393 110.56268616 56.77810669 110.56253052 C55.56226898 110.55220795 54.34643127 110.54188538 53.09375 110.53125 C51.83706512 110.5284201 50.58038025 110.52559021 49.28561401 110.52267456 C45.96142886 110.51339873 42.63752326 110.49546131 39.31341553 110.4732666 C35.91469729 110.45272562 32.51595006 110.44365528 29.1171875 110.43359375 C22.46086083 110.41157129 15.80466529 110.37812183 9.1484375 110.3359375 C9.15843025 111.42468674 9.15843025 111.42468674 9.16862488 112.53543091 C9.2288517 119.39123448 9.27447062 126.24699827 9.30387402 133.10299873 C9.31949912 136.62737482 9.34067894 140.15153144 9.37475586 143.67578125 C9.41372702 147.73179171 9.42817273 151.7875733 9.44140625 155.84375 C9.45689011 157.10333527 9.47237396 158.36292053 9.48832703 159.66067505 C9.48855362 160.84144623 9.48878021 162.02221741 9.48901367 163.23876953 C9.49900642 164.79097702 9.49900642 164.79097702 9.50920105 166.37454224 C8.75598302 172.55747374 5.65199742 176.33072809 0.97265625 180.078125 C-3.67730999 183.28431157 -8.31393015 183.90879602 -13.8515625 183.3359375 C-20.01977068 181.33576126 -24.26070167 177.69116594 -27.8515625 172.3359375 C-28.91102814 169.15754059 -28.97220546 166.91748402 -28.96508789 163.5793457 C-28.96497459 161.80784904 -28.96497459 161.80784904 -28.96485901 160.00056458 C-28.95969772 158.72549545 -28.95453644 157.45042633 -28.94921875 156.13671875 C-28.9478038 154.83139694 -28.94638885 153.52607513 -28.94493103 152.18119812 C-28.9411163 148.71404094 -28.93129494 145.24692576 -28.92022705 141.77978516 C-28.90999048 138.24056568 -28.9054286 134.7013394 -28.90039062 131.16210938 C-28.88967173 124.22003485 -28.87260784 117.27798819 -28.8515625 110.3359375 C-29.56042603 110.34481995 -30.26928955 110.35370239 -30.99963379 110.362854 C-37.70762565 110.44328331 -44.41548129 110.50404485 -51.12384796 110.54318619 C-54.57203382 110.56398643 -58.01981844 110.59216286 -61.46777344 110.63769531 C-65.43940285 110.68980994 -69.41087457 110.70894539 -73.3828125 110.7265625 C-75.22389587 110.75753021 -75.22389587 110.75753021 -77.10217285 110.78912354 C-85.11347164 110.79120901 -90.59253965 109.9371962 -96.875 104.625 C-101.534323 98.88837689 -103.633468 93.8943573 -102.8515625 86.3359375 C-100.8602691 80.19512253 -97.23563071 75.85069305 -91.8515625 72.3359375 C-88.10578335 70.57101419 -85.17910177 70.09058256 -81.05151367 70.10888672 C-79.91070847 70.10903778 -78.76990326 70.10918884 -77.5945282 70.10934448 C-76.37352921 70.11966705 -75.15253021 70.12998962 -73.89453125 70.140625 C-72.63643143 70.1434549 -71.3783316 70.14628479 -70.08210754 70.14920044 C-66.74968868 70.15848629 -63.41754703 70.17643274 -60.08520508 70.1986084 C-56.67987453 70.21912733 -53.27451527 70.22821504 -49.86914062 70.23828125 C-43.19653832 70.2603211 -36.52406641 70.2937836 -29.8515625 70.3359375 C-29.86044495 69.63960205 -29.86932739 68.9432666 -29.878479 68.22583008 C-29.95891682 61.63556884 -30.01967409 55.04544634 -30.05881119 48.45480347 C-30.07960921 45.06714792 -30.10778137 41.67990094 -30.15332031 38.29248047 C-30.20200943 34.39019104 -30.22457179 30.48847598 -30.2421875 26.5859375 C-30.26283264 25.38042236 -30.28347778 24.17490723 -30.30474854 22.93286133 C-30.30684978 15.00022725 -29.43886943 9.49304039 -24.10546875 3.3125 C-16.20367686 -3.00163394 -9.42867251 -4.53734752 0 0 Z M-17.8515625 9.3359375 C-20.20155481 12.86092596 -20.10688663 14.32949931 -20.12280273 18.50390625 C-20.13298935 19.77532471 -20.14317596 21.04674316 -20.15367126 22.35668945 C-20.15508275 23.37504379 -20.15508275 23.37504379 -20.15652275 24.41397095 C-20.16018605 26.540736 -20.1769098 28.66703459 -20.19728088 30.79370117 C-20.25270469 36.83926736 -20.28340931 42.88490166 -20.30786133 48.93066406 C-20.32372551 52.63010193 -20.35392937 56.32920718 -20.39262581 60.0284729 C-20.40428354 61.4382474 -20.41020623 62.84808135 -20.41030693 64.25790405 C-20.41049871 66.22797214 -20.43026038 68.19800906 -20.45092773 70.16796875 C-20.45599838 71.28921143 -20.46106903 72.4104541 -20.46629333 73.56567383 C-20.8515625 76.3359375 -20.8515625 76.3359375 -21.99308777 78.19937134 C-24.70010366 79.85487013 -26.82736061 79.70023814 -29.98779297 79.68896484 C-31.88523758 79.69444839 -31.88523758 79.69444839 -33.8210144 79.70004272 C-34.83450266 79.69284273 -34.83450266 79.69284273 -35.86846542 79.68549728 C-37.98750219 79.67175337 -40.10560294 79.67819871 -42.22463989 79.69033813 C-48.24829233 79.72129235 -54.27172763 79.71644325 -60.29541016 79.69628906 C-63.98198792 79.68535668 -67.66786315 79.6985934 -71.35434341 79.72618484 C-72.75691416 79.7316177 -74.15955551 79.72758089 -75.56206894 79.71378708 C-77.52680384 79.6946916 -79.49177557 79.70872769 -81.45654297 79.72412109 C-83.13174515 79.72054092 -83.13174515 79.72054092 -84.84078979 79.71688843 C-88.80368543 80.53170479 -90.29579079 82.27918823 -92.8515625 85.3359375 C-94.26156914 88.15595077 -94.09704701 90.20601005 -93.8515625 93.3359375 C-91.99363645 97.54071752 -89.92993091 99.31459009 -85.8515625 101.3359375 C-82.76630863 101.80380668 -82.76630863 101.80380668 -79.40893555 101.76831055 C-78.12798508 101.78810471 -76.84703461 101.80789886 -75.52726746 101.82829285 C-74.13927355 101.8350616 -72.75127804 101.84150858 -71.36328125 101.84765625 C-69.93551596 101.86451133 -68.50776544 101.8826627 -67.08003235 101.90205383 C-63.33349217 101.94947047 -59.58701186 101.97933337 -55.840271 102.00549316 C-52.01253437 102.03534104 -48.18500385 102.08185676 -44.35742188 102.12695312 C-36.85557121 102.21289122 -29.35370541 102.2802783 -21.8515625 102.3359375 C-20.47777911 105.08350428 -20.72686082 107.28347795 -20.72558594 110.35864258 C-20.72177917 111.62368118 -20.71797241 112.88871979 -20.71405029 114.1920929 C-20.71385643 114.87024866 -20.71366257 115.54840443 -20.71346283 116.24711037 C-20.71004822 119.0979188 -20.68868564 121.94849896 -20.66823196 124.79922771 C-20.63021104 130.10779978 -20.59894591 135.41612977 -20.60107422 140.72485352 C-20.60186204 144.41684593 -20.57846797 148.10800511 -20.5391922 151.79977989 C-20.52873963 153.20510803 -20.52720284 154.61053244 -20.53484344 156.01587868 C-20.54448247 157.98562299 -20.52048555 159.9554443 -20.49511719 161.92504883 C-20.48964874 163.60477531 -20.48964874 163.60477531 -20.48406982 165.31843567 C-19.65390436 169.27890492 -17.90934616 170.7785122 -14.8515625 173.3359375 C-12.03154923 174.74594414 -9.98148995 174.58142201 -6.8515625 174.3359375 C-3.35749481 172.66831428 -2.02485569 171.59587728 0.1484375 168.3359375 C0.47121906 165.45883592 0.47121906 165.45883592 0.45141602 162.15209961 C0.46805801 160.87745346 0.48470001 159.60280731 0.50184631 158.28953552 C0.51040726 156.89745114 0.51890489 155.50536637 0.52734375 154.11328125 C0.5435183 152.6874528 0.56069826 151.26163544 0.57884216 149.83583069 C0.6245276 146.08345658 0.65933454 142.3310677 0.69104004 138.57855225 C0.74291873 132.56842162 0.8080045 126.5584538 0.87925529 120.54852486 C0.90211482 118.4468289 0.91836794 116.3451537 0.93397522 114.24339294 C0.94746506 112.97189896 0.9609549 111.70040497 0.97485352 110.39038086 C0.98912132 108.70518593 0.98912132 108.70518593 1.00367737 106.98594666 C1.1484375 104.3359375 1.1484375 104.3359375 2.1484375 102.3359375 C3.33447823 102.32713814 3.33447823 102.32713814 4.54447937 102.31816101 C12.004219 102.26020328 19.46362579 102.18810933 26.92306805 102.10022259 C30.75785397 102.05553766 34.59253413 102.01627766 38.42749023 101.98950195 C42.13001445 101.96344983 45.83213122 101.92303462 49.53440285 101.87275124 C50.94529964 101.85609529 52.35626689 101.84457306 53.76724815 101.83832359 C55.74688298 101.82866961 57.7263885 101.79889799 59.70581055 101.76831055 C60.83166061 101.75720749 61.95751068 101.74610443 63.11747742 101.73466492 C67.57578147 101.14816823 70.20425044 99.54058995 72.9609375 96.0234375 C74.382958 92.80518058 74.58440941 90.82371282 74.1484375 87.3359375 C72.48081428 83.84186981 71.40837728 82.50923069 68.1484375 80.3359375 C65.27804058 80.02685011 65.27804058 80.02685011 61.98046875 80.06469727 C60.07334106 80.04941734 60.07334106 80.04941734 58.12768555 80.03382874 C57.10933121 80.03241725 57.10933121 80.03241725 56.07040405 80.03097725 C53.943639 80.02731395 51.81734041 80.0105902 49.69067383 79.99021912 C43.64510764 79.93479531 37.59947334 79.90409069 31.55371094 79.87963867 C27.85427307 79.86377449 24.15516782 79.83357063 20.4559021 79.79487419 C19.0461276 79.78321646 17.63629365 79.77729377 16.22647095 79.77719307 C14.25640286 79.77700129 12.28636594 79.75723962 10.31640625 79.73657227 C9.19516357 79.73150162 8.0739209 79.72643097 6.91870117 79.72120667 C4.1484375 79.3359375 4.1484375 79.3359375 2.28500366 78.19441223 C0.62950487 75.48739634 0.78413686 73.36013939 0.79541016 70.19970703 C0.79175446 68.93474396 0.78809875 67.66978088 0.78433228 66.3664856 C0.78913227 65.69082676 0.79393227 65.01516792 0.79887772 64.31903458 C0.81262163 62.19999781 0.80617629 60.08189706 0.79403687 57.96286011 C0.76308265 51.93920767 0.76793175 45.91577237 0.78808594 39.89208984 C0.79901832 36.20551208 0.7857816 32.51963685 0.75819016 28.83315659 C0.7527573 27.43058584 0.75679411 26.02794449 0.77058792 24.62543106 C0.7896834 22.66069616 0.77564731 20.69572443 0.76025391 18.73095703 C0.76264069 17.61415558 0.76502747 16.49735413 0.76748657 15.34671021 C-0.04732979 11.38381457 -1.79481323 9.89170921 -4.8515625 7.3359375 C-9.65186389 4.93578681 -13.75787814 6.26567423 -17.8515625 9.3359375 Z " fill="#525758" transform="translate(265.8515625,165.6640625)"/>
</svg>
